<svg t="1636702826098" class="icon" viewBox="0 0 1024 1024" version="1.1" xmlns="http://www.w3.org/2000/svg" p-id="11081" width="200" height="200"><path d="M512 768a32 32 0 0 1-32-32v-320a32 32 0 0 1 64 0v320a32 32 0 0 1-32 32z" p-id="11082"></path><path d="M896 768a32 32 0 0 1-32-32V640h-704v96a32 32 0 0 1-64 0v-128A32 32 0 0 1 128 576h768a32 32 0 0 1 32 32v128a32 32 0 0 1-32 32zM640 320H384a32 32 0 0 1-32-32v-256A32 32 0 0 1 384 0h256a32 32 0 0 1 32 32v256a32 32 0 0 1-32 32zM416 256h192V64h-192z" p-id="11083"></path><path d="M896 928m-96 0a96 96 0 1 0 192 0 96 96 0 1 0-192 0Z" p-id="11084"></path><path d="M512 928m-96 0a96 96 0 1 0 192 0 96 96 0 1 0-192 0Z" p-id="11085"></path><path d="M128 928m-96 0a96 96 0 1 0 192 0 96 96 0 1 0-192 0Z" p-id="11086"></path></svg>