<svg t="1636531841589" class="icon" viewBox="0 0 1024 1024" version="1.1" xmlns="http://www.w3.org/2000/svg" p-id="24683" width="200" height="200"><path d="M853.333333 938.666667h-42.666666v-74.453334a512 512 0 0 0-597.333334 0V938.666667H170.666667v-96l8.533333-6.4a554.666667 554.666667 0 0 1 665.6 0l8.533333 6.4zM512 362.666667a85.333333 85.333333 0 1 1-85.333333 85.333333 85.333333 85.333333 0 0 1 85.333333-85.333333m0-42.666667a128 128 0 1 0 128 128 128 128 0 0 0-128-128z" p-id="24684"></path><path d="M512 128a256 256 0 1 1-256 256A256 256 0 0 1 512 128m0-42.666667a298.666667 298.666667 0 1 0 298.666667 298.666667A298.666667 298.666667 0 0 0 512 85.333333z" p-id="24685"></path><path d="M341.333333 618.666667h42.666667v149.333333h-42.666667zM640 618.666667h42.666667v149.333333h-42.666667z" p-id="24686"></path></svg>