<svg t="1636648916593" class="icon" viewBox="0 0 1024 1024" version="1.1" xmlns="http://www.w3.org/2000/svg" p-id="35670" width="200" height="200"><path d="M988.453841 987.429878a36.570122 36.570122 0 0 1-73.140245 0c0-222.163494-180.107853-402.271347-402.271348-402.271348s-402.271347 180.107853-402.271347 402.271348a36.570122 36.570122 0 0 1-73.140245 0c0-262.57348 212.838113-475.411592 475.411592-475.411593s475.411592 212.838113 475.411593 475.411593z" p-id="35671"></path><path d="M453.030677 867.041034l66.045642 58.512196 66.045641-58.512196-66.045641-161.639941-66.045642 161.639941z m219.420735 20.369558l-153.375093 135.858006L365.701225 887.410592 519.076319 512.018285l153.375093 375.392307z" p-id="35672"></path><path d="M512.713117 586.548195A293.292382 293.292382 0 1 1 512.713117 0.03657a293.292382 293.292382 0 0 1 0 586.511625z m0-73.140245A220.152137 220.152137 0 1 0 512.713117 73.176815a220.152137 220.152137 0 0 0 0 440.231135z" p-id="35673"></path></svg>