<svg t="1636704102317" class="icon" viewBox="0 0 1141 1024" version="1.1" xmlns="http://www.w3.org/2000/svg" p-id="11814" width="200" height="200"><path d="M1039.007 119.07H975.05V71.444A71.395 71.395 0 0 0 903.69 0H237.785a71.395 71.395 0 0 0-71.344 71.445v47.624h-63.958L0 388.65v4.28A131.19 131.19 0 0 0 95.114 518.9v433.655A71.395 71.395 0 0 0 166.46 1024h808.574a71.395 71.395 0 0 0 71.344-71.445V518.899a131.19 131.19 0 0 0 95.131-125.968v-4.281l-102.5-269.597zM927.475 376.126h-47.557a83.297 83.297 0 0 1-83.28 83.296 83.28 83.28 0 0 1-83.195-83.296h-47.558a89.944 89.944 0 0 1-95.13 83.33 89.944 89.944 0 0 1-95.132-83.347h-47.557a83.297 83.297 0 0 1-83.247 83.33 83.297 83.297 0 0 1-83.229-83.33h-47.557a83.313 83.313 0 0 1-81.215 85.361c-45.963 1.125-67.35-18.465-68.474-64.512l87.762-213.478h837.296l87.762 213.478c-2.182 44.452-22.024 62.548-66.46 62.498a83.297 83.297 0 0 1-83.229-83.347zM532.984 959.572V714.416a71.395 71.395 0 0 0-71.345-71.445H318.951a71.395 71.395 0 0 0-71.344 71.445v245.156h-64.361a23.804 23.804 0 0 1-23.77-23.837V523.919c38.24-3.458 56.235-23.57 78.327-55.01a130.686 130.686 0 0 0 214.033-1.428 149.924 149.924 0 0 0 235.688 0 130.686 130.686 0 0 0 214.032 1.427c22.579 31.98 41.464 52.157 80.477 55.01v411.85c0 13.144-10.643 23.82-23.787 23.82H532.984z m-221.033 0V731.237c0-13.161 10.66-23.838 23.787-23.838h109.114c13.128 0 23.77 10.677 23.77 23.838v228.335H311.952zM230.82 88.249c0-13.144 10.643-23.82 23.77-23.82h632.312c13.144 0 23.787 10.676 23.787 23.836v30.804h-679.87V88.25z" p-id="11815"></path></svg>