<svg t="1636531708389" class="icon" viewBox="0 0 1024 1024" version="1.1" xmlns="http://www.w3.org/2000/svg" p-id="20960" width="200" height="200"><path d="M290.692469 997.081134l542.603616-87.532225a78.74611 78.74611 0 0 0 64.840092-84.461884s-3.839177-14.332926-0.426909-34.63857c3.327286-20.304645 19.792755-31.481248 22.865096-73.968134 2.388488-32.845955-8.53217-37.282003-5.460829-72.517446 3.071341-35.064479 17.916157-40.781253 21.58537-86.424463 3.753195-45.728192-13.651072-56.904794-10.323785-88.386042 3.327286-31.566229 9.384987-49.482386 9.384987-49.482386 13.0532-53.748471-20.987498-91.970273-75.930714-85.485664l-180.782223 21.413407a39.159601 39.159601 0 0 1-45.388265-43.510667l15.186743-197.247692C654.561422 40.956215 599.704188-9.720915 526.503889 1.711633L535.887876 0.004999a71.579647 71.579647 0 0 0-56.477886 58.014556s-42.230942 414.033193-188.717521 457.03197v482.030609zM85.424497 573.322027a45.558228 45.558228 0 0 1 31.396266-24.484748s73.968134-13.651072 125.072173-23.547949v479.64112l-112.87179 18.258084a40.098399 40.098399 0 0 1-43.596649-20.902517V573.322027z" p-id="20961"></path></svg>