<svg t="1636639880030" class="icon" viewBox="0 0 1024 1024" version="1.1" xmlns="http://www.w3.org/2000/svg" p-id="17433" width="200" height="200"><path d="M896 0h-768C57.344 0 0 57.344 0 128v768C0 966.656 57.344 1024 128 1024h768c70.656 0 128-57.344 128-128v-768C1024 57.344 966.656 0 896 0zM186.368 283.648c31.744 0 58.368 26.624 58.368 58.368s-26.624 58.368-58.368 58.368-58.368-26.624-58.368-58.368 25.6-58.368 58.368-58.368z m455.68 456.704h-245.76v107.52c0 21.504-24.576 32.768-40.96 20.48L136.192 702.464c-13.312-10.24-13.312-30.72 0-40.96l220.16-165.888c16.384-12.288 40.96-1.024 40.96 20.48V624.64h245.76c31.744 0 58.368 26.624 58.368 58.368s-27.648 57.344-59.392 57.344z m195.584 0c-31.744 0-58.368-26.624-58.368-58.368s26.624-58.368 58.368-58.368 58.368 26.624 58.368 58.368-26.624 58.368-58.368 58.368z m51.2-377.856L667.648 528.384c-16.384 12.288-40.96 1.024-40.96-20.48V400.384h-245.76c-31.744 0-58.368-26.624-58.368-58.368s26.624-58.368 58.368-58.368h245.76V176.128c0-20.48 23.552-32.768 40.96-20.48l221.184 165.888c13.312 10.24 13.312 30.72 0 40.96z" fill="#1D2339" p-id="17434"></path></svg>