<svg t="1636647287624" class="icon" viewBox="0 0 1024 1024" version="1.1" xmlns="http://www.w3.org/2000/svg" p-id="29564" width="200" height="200"><path d="M844.8 102.4h-133.12c-10.24-30.72-40.96-51.2-71.68-51.2h-256c-35.84 0-61.44 20.48-71.68 51.2H179.2C138.24 102.4 102.4 138.24 102.4 179.2v716.8c0 40.96 35.84 76.8 76.8 76.8h665.6c40.96 0 76.8-35.84 76.8-76.8v-716.8c0-40.96-35.84-76.8-76.8-76.8z m-460.8 0h256c15.36 0 25.6 10.24 25.6 25.6s-10.24 25.6-25.6 25.6h-256c-15.36 0-25.6-10.24-25.6-25.6s10.24-25.6 25.6-25.6zM870.4 896c0 15.36-10.24 25.6-25.6 25.6h-665.6c-15.36 0-25.6-10.24-25.6-25.6v-716.8c0-15.36 10.24-25.6 25.6-25.6h133.12c10.24 30.72 40.96 51.2 71.68 51.2h256c35.84 0 61.44-20.48 71.68-51.2h133.12c15.36 0 25.6 10.24 25.6 25.6v716.8z" p-id="29565"></path><path d="M568.32 465.92l-81.92 81.92-30.72-30.72c-10.24-10.24-25.6-10.24-35.84 0s-10.24 25.6 0 35.84l51.2 51.2c0 10.24 10.24 10.24 15.36 10.24s15.36 0 20.48-5.12l102.4-102.4c10.24-10.24 10.24-25.6 0-35.84s-30.72-10.24-40.96-5.12z" p-id="29566"></path><path d="M512 281.6c-143.36 0-256 112.64-256 256s112.64 256 256 256 256-112.64 256-256-112.64-256-256-256z m0 460.8c-112.64 0-204.8-92.16-204.8-204.8s92.16-204.8 204.8-204.8 204.8 92.16 204.8 204.8-92.16 204.8-204.8 204.8z" p-id="29567"></path></svg>