<svg t="1636640659157" class="icon" viewBox="0 0 1024 1024" version="1.1" xmlns="http://www.w3.org/2000/svg" p-id="19974" width="200" height="200"><path d="M635.028 257.452c81.849 0 148.487 61.876 148.487 137.901 0 23.595-6.618 47.068-19.179 67.71-18.657 30.661-48.87 53.285-85.019 63.807-9.89 2.824-17.136 3.903-23.982 3.903-15.609 0-28.282-12.673-28.282-28.285 0-15.663 12.673-28.285 28.282-28.285 1.188 0 3.17-0.17 6.228-1.069 24.152-7.07 43.331-21.209 54.47-39.486 7.127-11.76 10.915-25.058 10.915-38.294 0-44.858-41.233-81.34-91.919-81.34-17.533 0-34.615 4.524-49.606 13.067-26.531 15.158-42.32 40.673-42.32 68.273v236.839c0 48.137-26.466 91.973-70.812 117.371-23.534 13.464-50.404 20.544-77.664 20.544-81.856 0-148.487-61.889-148.487-137.914 0-23.642 6.618-47.057 19.23-67.71 18.613-30.651 48.758-53.343 84.961-63.797 9.897-2.831 17.14-3.91 23.985-3.91 15.612 0 28.279 12.67 28.279 28.285 0 15.612-12.666 28.285-28.279 28.285-1.191 0-3.173 0.166-6.225 1.008-24.213 7.08-43.331 21.277-54.473 39.482-7.124 11.821-10.918 25.068-10.918 38.355 0 44.858 41.24 81.343 91.926 81.343 17.479 0 34.615-4.528 49.606-13.07 26.527-15.157 42.313-40.67 42.313-68.263v-236.85c0-48.133 26.473-92.034 70.819-117.367 23.476-13.467 50.35-20.533 77.664-20.533zM59.471 512.01c0 249.916 202.604 452.519 452.529 452.519 249.919 0 452.529-202.604 452.529-452.519 0-249.936-202.604-452.539-452.529-452.539-249.933 0-452.529 202.603-452.529 452.539z m-56.568 0C2.903 230.839 230.826 2.9 512 2.9s509.097 227.94 509.097 509.11c0 281.15-227.923 509.09-509.097 509.09S2.903 793.161 2.903 512.01z m0 0"  p-id="19975"></path></svg>