<svg t="1636647115426" class="icon" viewBox="0 0 1024 1024" version="1.1" xmlns="http://www.w3.org/2000/svg" p-id="27891" width="200" height="200"><path d="M992 825.6c-12.8-6.4-19.2-25.6-19.2-38.4 0-19.2 6.4-32 19.2-38.4l19.2-12.8-6.4-19.2c-6.4-25.6-19.2-44.8-38.4-64l-19.2-12.8-19.2 6.4c-6.4 0-12.8 6.4-19.2 6.4-25.6 0-51.2-19.2-51.2-44.8v-19.2l-19.2-6.4c-25.6-6.4-51.2-6.4-76.8 0l-19.2 6.4v19.2c0 25.6-25.6 44.8-51.2 44.8-6.4 0-12.8 0-19.2-6.4l-25.6-6.4-12.8 12.8c-19.2 19.2-32 44.8-38.4 64l-6.4 19.2 19.2 12.8c12.8 6.4 19.2 25.6 19.2 38.4 0 19.2-6.4 32-19.2 38.4l-19.2 12.8 6.4 19.2c6.4 25.6 19.2 44.8 38.4 64l12.8 12.8 19.2-6.4c6.4-6.4 12.8-6.4 19.2-6.4 25.6 0 51.2 19.2 51.2 44.8v19.2l19.2 6.4c12.8 0 25.6 6.4 38.4 6.4 12.8 0 25.6 0 38.4-6.4l19.2-6.4v-19.2c0-25.6 25.6-44.8 51.2-44.8 6.4 0 12.8 0 19.2 6.4l19.2 6.4 12.8-12.8c19.2-19.2 32-44.8 38.4-64l6.4-19.2-6.4-12.8z m-57.6 51.2h-25.6c-44.8 0-83.2 32-96 70.4h-25.6c-12.8-44.8-51.2-70.4-96-70.4h-25.6c-6.4-6.4-6.4-12.8-12.8-19.2 19.2-19.2 25.6-44.8 25.6-70.4 0-25.6-12.8-51.2-25.6-70.4 6.4-6.4 6.4-12.8 12.8-19.2h25.6c25.6 0 51.2-6.4 70.4-25.6 12.8-12.8 25.6-25.6 25.6-44.8h25.6c6.4 19.2 12.8 32 25.6 44.8 19.2 19.2 44.8 25.6 70.4 25.6h25.6c6.4 6.4 6.4 12.8 12.8 19.2-19.2 19.2-25.6 44.8-25.6 70.4 0 25.6 12.8 51.2 25.6 70.4-6.4 6.4-6.4 12.8-12.8 19.2z m-134.4-179.2c-51.2 0-89.6 38.4-89.6 89.6 0 51.2 38.4 89.6 89.6 89.6 51.2 0 89.6-38.4 89.6-89.6 0-51.2-44.8-89.6-89.6-89.6z m0 128c-19.2 0-38.4-19.2-38.4-38.4s19.2-38.4 38.4-38.4 38.4 19.2 38.4 38.4-19.2 38.4-38.4 38.4z m-70.4-339.2c0-19.2-19.2-38.4-38.4-38.4H217.6c-25.6 0-38.4 12.8-38.4 38.4 0 19.2 19.2 38.4 38.4 38.4h473.6c19.2 0 38.4-19.2 38.4-38.4z m-512 198.4c-19.2 0-38.4 19.2-38.4 38.4s19.2 38.4 38.4 38.4h236.8c19.2 0 38.4-19.2 38.4-38.4s-19.2-38.4-38.4-38.4H217.6z m467.2-473.6H217.6c-25.6 0-38.4 19.2-38.4 38.4s19.2 38.4 38.4 38.4h473.6c19.2 0 38.4-19.2 38.4-38.4s-19.2-38.4-44.8-38.4zM550.4 947.2H134.4c-19.2 0-38.4-19.2-38.4-38.4V115.2c0-19.2 19.2-38.4 38.4-38.4H768c19.2 0 38.4 19.2 38.4 38.4v352c0 19.2 19.2 38.4 38.4 38.4s38.4-19.2 38.4-38.4V76.8c0-44.8-32-76.8-76.8-76.8H96C51.2 0 19.2 38.4 19.2 76.8v864c0 44.8 32 76.8 76.8 76.8h454.4c19.2 0 38.4-19.2 38.4-38.4s-19.2-32-38.4-32z m0 0" p-id="27892"></path></svg>