<svg t="1636648461242" class="icon" viewBox="0 0 1024 1024" version="1.1" xmlns="http://www.w3.org/2000/svg" p-id="34746" width="200" height="200"><path d="M925.3 338.5c-0.8-4.7-3-9.2-4.8-13.6l-9.3-23.2-27.4-68.1-22.4-55.7c-1.7-4.3-3.3-8.6-5-12.8-2.6-6.3-5.1-12.6-8.6-18.4-3.6-6-8.1-11.6-12.6-16.9-7.1-8.4-16.3-15.5-25.7-21.3-21.1-13.1-45.9-17.9-70.4-17.9H286.4c-5.1 0-10.2 0.2-15.2 0.8-7 0.8-14.1 1.7-21 3.5-7 1.8-13.6 4.6-20.2 7.5-10.2 4.4-19.1 10.8-27.6 18-14.8 12.5-24.7 30.1-30.9 48.2l3.4-8.1L132.3 261l-23.8 56.1-3.9 9.2c-6.8 16.1-9.9 32.7-12.1 49.9-1.4 10.9-1.5 21.9-0.6 32.8 2.7 31 12.1 61.3 29.2 87.5 17.2 26.3 40.7 48.5 68.4 63.4l-12.2-12.2c1.3 2.6 3.5 4.7 5.4 7l-5.3-6.9c4.1 8.5 12.8 12.9 21 16.5 6.4 2.9 13 5.6 19.6 7.9 8.9 3 18.1 5 27.5 6.3 12.4 1.7 24.7 3 37.3 2.8 11.9-0.3 23.8-1.9 35.4-4.2 39.1-7.6 76.5-30.1 102.2-60.4h-48.1c14.4 16.9 32.4 31.3 52 41.8 10.9 5.9 22.6 10.7 34.4 14.4 12.1 3.8 24.6 5.7 37.3 7.2 22.6 2.7 46.3 0 68.2-6.3 24.4-7 45.9-19.1 65.7-34.6 8.5-6.7 16.4-14.2 23.4-22.5h-48.1c14.3 16.9 32.3 31.3 51.8 41.7 10.9 5.9 22.5 10.7 34.3 14.4 12.1 3.8 24.6 5.7 37.1 7.2 23.8 2.9 49.2 0.2 72.2-6.1 24.6-6.7 45.8-19.2 65.6-34.9 27.4-21.6 46.8-52.2 58.2-84.8 5.9-16.8 8.7-34.8 9.5-52.5 0.9-21.1-2.1-43.1-8.6-63.2-5.7-17.6-23.4-28.9-41.9-23.8-17.3 4.7-29.5 24.2-23.8 41.9 2.8 8.7 4.9 17.6 6.1 26.6l-1.2-9c1.8 13.7 1.8 27.5 0 41.2l1.2-9c-1.9 13.5-5.5 26.6-10.7 39.2l3.4-8.1c-5.1 12.1-11.8 23.4-19.7 33.8l5.3-6.9c-8.1 10.4-17.5 19.8-27.9 27.9l6.9-5.3c-10 7.6-20.8 14.1-32.3 19l8.1-3.4c-12.2 5-25 8.3-38.1 10.1l9-1.2c-14.6 1.9-29.4 2.1-44 0.2l9 1.2c-13.4-1.8-26.5-5.4-39.1-10.6l8.1 3.4c-12.3-5.2-24-12-34.6-20.2l6.9 5.3c-8.5-6.6-16.2-14.1-23.2-22.3-11.3-13.3-36.8-13.3-48.1 0-7 8.3-14.8 15.8-23.4 22.5l6.9-5.3c-10.4 8-21.8 14.7-33.8 19.9l8.1-3.4c-12.6 5.3-25.8 8.9-39.3 10.8l9.1-1.2c-13 1.7-26.1 1.7-39.1 0l9 1.2c-13.9-1.9-27.4-5.6-40.3-11l8.1 3.4c-12-5.2-23.3-11.8-33.6-19.7l6.9 5.3c-8.5-6.6-16.3-14.1-23.2-22.3-11.3-13.3-36.8-13.4-48.1 0-7.2 8.5-15.3 16.2-24.1 23l6.9-5.3c-10.3 7.9-21.6 14.4-33.6 19.5l8.1-3.4c-12.5 5.2-25.6 8.8-38.9 10.6l9-1.2c-15 2-30.2 1.8-45.2-0.2l9 1.2c-13-1.8-25.7-5.1-37.8-10.2l8.1 3.4c-3.4-1.5-6.6-3-9.9-4.7l12.2 12.2c-1.3-2.6-3.5-4.7-5.4-7l5.3 6.9c-4.7-9.1-14.1-12.9-22.2-18-4.2-2.6-8.2-5.5-12.1-8.5l6.9 5.3c-10.3-8.1-19.6-17.4-27.7-27.8l5.3 6.9c-7.9-10.4-14.5-21.6-19.6-33.6l3.4 8.1c-5.2-12.5-8.8-25.6-10.7-39l1.2 9c-1.8-13.6-1.8-27.4 0-41.1l-1.2 9c1.5-10.7 4.2-21 7.3-31.3l-3.4 8.1L206 260c11.2-26.4 22.3-52.8 33.3-79.3l-3.4 8.1c2.5-5.9 5.8-11.4 9.7-16.5l-5.3 6.9c3.9-5 8.4-9.5 13.4-13.3l-6.9 5.3c5.4-4.1 11.3-7.5 17.6-10.2l-8.1 3.4c7.3-3 15-5 22.9-6.1l-9 1.2c8.8-1.1 17.6-0.9 26.4-0.9h430.2c10.1 0 20.3-0.4 30.3 0.9l-9-1.2c8.3 1.2 16.3 3.3 24.1 6.6l-8.1-3.4c6.7 2.9 13 6.6 18.9 11.1l-6.9-5.3c5.1 4 9.7 8.7 13.7 13.8l-5.3-6.9c4 5.3 7.3 11 9.9 17.1l-3.4-8.1c14.1 34.6 27.8 69.5 41.8 104.2l18.4 45.7c3 7.5 7.5 15.6 8.8 23.7 1.4 8.3 8.7 16.3 15.6 20.3 7.9 4.6 17.4 5.8 26.2 3.4 8.5-2.3 15.9-8 20.3-15.6 4.7-8.7 4.7-17 3.2-26.4zM143.4 657.7l0.1 102.2 0.1 57.6v10c0 20.6 6.2 42.2 18.2 59 3.7 5.1 7.6 10.3 12 14.8 4.6 4.8 10.1 8.8 15.4 12.8 8.4 6.3 18.5 10.6 28.4 14 10.3 3.5 21.5 4.8 32.3 4.8h18.6l93.5-0.1 136.1-0.1 139.8-0.1 104.6-0.1h31.9c17.5 0 34-4.6 49.6-12.3 18.4-9.1 34.6-25.7 43.9-43.9 8-15.6 12.3-32.5 12.3-50v-40.6l-0.1-124v-7.2c0-18.5-15.5-34-34-34s-34 15.5-34 34v153.4c0 9.6 0.6 19.5-0.7 29.1l1.2-9c-0.9 6.1-2.6 12.1-4.9 17.8l3.4-8.1c-2.4 5.5-5.5 10.8-9.1 15.6l5.3-6.9c-3.9 5-8.4 9.5-13.4 13.4l6.9-5.3c-4.8 3.6-10.1 6.7-15.6 9.1l8.1-3.4c-6 2.5-12.3 4.2-18.8 5.1 3-0.4 6-0.8 9.1-1.2-6.4 0.8-12.9 0.6-19.4 0.6h-32.4l-111.6 0.1c-47.2 0-94.4 0.1-141.6 0.1-44.2 0-88.4 0.1-132.6 0.1l-84.7 0.1c-7.4 0-14.9 0.3-22.2-0.7l9 1.2c-6.1-0.9-12.1-2.5-17.8-4.9l8.1 3.4c-5.6-2.4-10.8-5.4-15.6-9.1l6.9 5.3c-5-3.9-9.5-8.3-13.4-13.3l5.3 6.9c-3.6-4.8-6.7-10-9.1-15.6l3.4 8.1c-2.4-5.7-4-11.6-4.9-17.7l1.2 9c-1.7-12.3-0.7-25.2-0.7-37.6l-0.1-67.4-0.1-74.8c0-18.5-15.5-34-34-34-18.5-0.2-34 15.2-33.9 33.8z m0 0" p-id="34747"></path><path d="M732.9 333.7H284.3c-18.6 0-34 15.5-34 34s15.5 34 34 34h446.9c18.5 0 34-15.5 34-34 0-18-14.6-33.1-32.3-34z" p-id="34748"></path></svg>