<svg t="1636706333967" class="icon" viewBox="0 0 1024 1024" version="1.1" xmlns="http://www.w3.org/2000/svg" p-id="16180" width="200" height="200"><path d="M440.32 926.72l-33.28-25.6-263.68 0c-10.24 0-23.04-2.56-33.28-12.8-5.12-5.12-7.68-23.04-7.68-33.28l0 0L107.52 102.4c0-2.56 2.56-20.48 12.8-30.72 15.36-15.36 25.6-17.92 28.16-17.92l407.04 0 0 110.08c0 5.12 0 43.52 20.48 66.56 20.48 23.04 51.2 33.28 53.76 35.84l5.12 2.56 143.36 0 0 130.56c15.36 12.8 30.72 23.04 46.08 35.84 2.56 2.56 5.12 5.12 7.68 7.68L832 204.8l-232.96-204.8L145.92 0C140.8 0 112.64 2.56 81.92 33.28c-25.6 25.6-28.16 61.44-28.16 66.56l0 0 0 755.2c0 7.68 0 43.52 17.92 66.56 10.24 12.8 25.6 23.04 43.52 28.16 12.8 2.56 25.6 2.56 30.72 2.56l358.4 0C483.84 947.2 460.8 939.52 440.32 926.72L440.32 926.72zM606.72 79.36l151.04 133.12-115.2 0c-7.68-2.56-20.48-10.24-28.16-17.92-5.12-7.68-7.68-23.04-7.68-30.72L606.72 79.36 606.72 79.36z" p-id="16181"></path><path d="M957.44 952.32l-130.56-130.56c33.28-46.08 53.76-102.4 53.76-166.4 0-153.6-125.44-279.04-279.04-279.04s-279.04 125.44-279.04 279.04c0 153.6 125.44 279.04 279.04 279.04 61.44 0 117.76-20.48 166.4-53.76l130.56 130.56c7.68 7.68 17.92 12.8 30.72 12.8 10.24 0 20.48-5.12 30.72-12.8C975.36 995.84 975.36 967.68 957.44 952.32L957.44 952.32zM391.68 655.36c0-115.2 94.72-209.92 209.92-209.92 115.2 0 209.92 94.72 209.92 209.92s-94.72 209.92-209.92 209.92S391.68 770.56 391.68 655.36L391.68 655.36z" p-id="16182"></path></svg>