<svg t="1650275259741" class="icon" viewBox="0 0 1024 1024" version="1.1" xmlns="http://www.w3.org/2000/svg" p-id="2643" width="128" height="128"><path d="M532.181333 405.994667l-20.906666-101.845334-19.349334 101.610667a108.8 108.8 0 0 0-57.642666 30.08 108.842667 108.842667 0 0 0 0 153.898667 108.842667 108.842667 0 0 0 153.898666 0 108.693333 108.693333 0 0 0 0-153.898667 107.882667 107.882667 0 0 0-55.978666-29.845333zM795.733333 797.226667l-179.157333-179.157334c-19.2 19.2-42.325333 32-66.730667 38.570667l65.621334 244.906667c-33.536 8.96-68.544 13.525333-104.192 13.525333a407.04 407.04 0 0 1-104.106667-13.525333l65.621333-244.906667a147.541333 147.541333 0 0 1-66.730666-38.570667l-179.157334 179.157334a399.573333 399.573333 0 0 1-104.042666-180.352l244.693333-65.536a148.885333 148.885333 0 0 1 0-77.056L122.88 408.725333a399.381333 399.381333 0 0 1 103.936-180.352l179.178667 179.157334c19.2-19.2 42.24-32 66.730666-38.570667l-65.557333-244.906667a407.082667 407.082667 0 0 1 208.341333 0l-65.642666 244.906667a148.032 148.032 0 0 1 66.730666 38.570667l179.157334-179.157334a400.298667 400.298667 0 0 1 104.32 180.266667L655.04 474.24a148.842667 148.842667 0 0 1 0 77.056l244.906667 65.642667a400.106667 400.106667 0 0 1-104.234667 180.266666z m48.213334-615.509334A466.474667 466.474667 0 0 0 512 44.245333c-125.312 0-243.2 48.832-331.818667 137.450667a466.048 466.048 0 0 0-137.514666 331.84 466.261333 466.261333 0 0 0 137.514666 331.946667c88.618667 88.725333 206.506667 137.429333 331.818667 137.429333 125.397333 0 243.2-48.810667 331.904-137.429333 88.704-88.618667 137.429333-206.506667 137.429333-331.946667a466.346667 466.346667 0 0 0-137.429333-331.84z"  p-id="2644"></path></svg>